<svg data-v-423bf9ae="" xmlns="http://www.w3.org/2000/svg" viewBox="0 0 591 111" class="iconLeft">
  <defs>
    <linearGradient id="grad" x1="0%" y1="0%" x2="100%" y2="0%">
      <stop offset="0%" style="stop-color: #2af598; stop-opacity: 1" />
      <stop offset="70%" style="stop-color: #08aeea; stop-opacity: 1" />
    </linearGradient>
  </defs>
  <g
    data-v-423bf9ae=""
    id="0eb49aef-28b8-41e5-8e09-31510e71e3b9"
    fill="#f5f5f5"
    transform="matrix(4.983388720108072,0,0,4.983388720108072,91.34613403526265,6.291388755344606)"
  >
    <path
      d="M9.25 15.37L7.03 11.42L6.72 10.89L6.65 10.77C8.68 10.32 9.73 8.82 9.73 7.35C9.73 6.38 9.28 5.46 8.51 4.82C7.73 4.14 6.62 3.79 5.35 3.79L1.26 3.79C1.11 3.79 0.98 3.92 0.98 4.06L0.98 5.17L1.12 5.42L1.12 5.43L2.98 8.71L0.98 8.71L0.98 15.54C0.98 15.69 1.11 15.82 1.26 15.82L2.90 15.82C3.04 15.82 3.16 15.69 3.16 15.54L3.16 10.89L4.21 10.89L4.51 11.42L6.90 15.65L6.93 15.69C6.97 15.76 7.06 15.82 7.15 15.82L9.03 15.82C9.18 15.82 9.30 15.69 9.30 15.53C9.30 15.48 9.30 15.44 9.27 15.40ZM5.19 8.19L3.95 5.98L5.35 5.98C6.86 5.98 7.53 6.69 7.53 7.35C7.53 7.91 7.03 8.53 5.89 8.68C5.77 8.69 5.63 8.71 5.49 8.71ZM16.59 15.82C13.27 15.82 10.57 13.12 10.57 9.80C10.57 6.48 13.27 3.78 16.59 3.78C19.91 3.78 22.61 6.48 22.61 9.80C22.61 13.12 19.91 15.82 16.59 15.82ZM16.59 5.96C14.48 5.96 12.75 7.69 12.75 9.80C12.75 11.91 14.48 13.62 16.59 13.62C18.70 13.62 20.41 11.91 20.41 9.80C20.41 7.69 18.70 5.96 16.59 5.96ZM31.77 9.80C32.52 9.13 32.90 8.23 32.90 7.34C32.90 6.38 32.47 5.46 31.70 4.80C30.90 4.13 29.81 3.78 28.53 3.78L24.43 3.78C24.28 3.78 24.15 3.91 24.15 4.07L24.15 5.21L26.49 8.71L24.15 8.71L24.15 15.53C24.15 15.68 24.28 15.82 24.43 15.82L28.53 15.82C31.40 15.82 32.90 14.03 32.90 12.26C32.90 11.33 32.49 10.44 31.77 9.80ZM27.29 5.96L28.53 5.96C30.03 5.96 30.72 6.68 30.72 7.34C30.72 7.91 30.20 8.51 29.09 8.67ZM26.33 13.62L26.33 10.89L28.53 10.89C30.03 10.89 30.72 11.61 30.72 12.26C30.72 12.92 30.03 13.62 28.53 13.62ZM50.32 15.82L45.74 11.24L41.16 15.82L41.16 4.07C41.16 3.92 41.29 3.79 41.43 3.79L43.05 3.79C43.20 3.79 43.32 3.92 43.32 4.07L43.32 10.61L45.74 8.19L48.16 10.61L48.16 4.07C48.16 3.92 48.29 3.79 48.44 3.79L50.05 3.79C50.20 3.79 50.32 3.92 50.32 4.07ZM60.34 15.54C60.34 15.69 60.21 15.82 60.07 15.82L52.42 15.82C52.26 15.82 52.14 15.69 52.14 15.54L52.14 4.06C52.14 3.91 52.26 3.78 52.42 3.78L59.79 3.78C59.95 3.78 60.07 3.91 60.07 4.06L60.07 5.70C60.07 5.85 59.95 5.96 59.79 5.96L54.32 5.96L54.32 8.71L59.51 8.71C59.67 8.71 59.79 8.82 59.79 8.97L59.79 10.61C59.79 10.77 59.67 10.89 59.51 10.89L54.32 10.89L54.32 13.62L60.07 13.62C60.21 13.62 60.34 13.75 60.34 13.90ZM69.50 9.80C70.25 9.13 70.63 8.23 70.63 7.34C70.63 6.38 70.20 5.46 69.43 4.80C68.63 4.13 67.54 3.78 66.26 3.78L62.16 3.78C62.01 3.78 61.88 3.91 61.88 4.07L61.88 5.21L64.22 8.71L61.88 8.71L61.88 15.53C61.88 15.68 62.01 15.82 62.16 15.82L66.26 15.82C69.13 15.82 70.63 14.03 70.63 12.26C70.63 11.33 70.22 10.44 69.50 9.80ZM65.02 5.96L66.26 5.96C67.76 5.96 68.45 6.68 68.45 7.34C68.45 7.91 67.93 8.51 66.82 8.67ZM64.06 13.62L64.06 10.89L66.26 10.89C67.76 10.89 68.45 11.61 68.45 12.26C68.45 12.92 67.76 13.62 66.26 13.62ZM75.59 15.81C76.94 15.82 78.30 15.37 79.42 14.45C81.97 12.35 82.35 8.55 80.23 5.99C79.06 4.55 77.32 3.79 75.59 3.79L72.59 3.79C72.44 3.79 72.31 3.92 72.31 4.06L72.31 15.47C72.31 15.67 72.44 15.81 72.59 15.81ZM78.55 7.38C79.90 9.00 79.66 11.42 78.02 12.75C77.32 13.34 76.45 13.64 75.59 13.62L74.49 13.62L74.49 5.98L75.59 5.98C76.69 5.98 77.80 6.45 78.55 7.38ZM91.21 15.54C91.21 15.69 91.08 15.82 90.94 15.82L83.29 15.82C83.13 15.82 83.01 15.69 83.01 15.54L83.01 4.06C83.01 3.91 83.13 3.78 83.29 3.78L90.66 3.78C90.82 3.78 90.94 3.91 90.94 4.06L90.94 5.70C90.94 5.85 90.82 5.96 90.66 5.96L85.19 5.96L85.19 8.71L90.38 8.71C90.54 8.71 90.66 8.82 90.66 8.97L90.66 10.61C90.66 10.77 90.54 10.89 90.38 10.89L85.19 10.89L85.19 13.62L90.94 13.62C91.08 13.62 91.21 13.75 91.21 13.90ZM100.16 4.07C100.16 4.10 100.16 4.13 100.14 4.16L97.27 15.58C97.27 15.60 97.26 15.61 97.26 15.62C97.23 15.74 97.12 15.82 97.01 15.82L95.20 15.82C95.07 15.82 94.98 15.74 94.95 15.61L92.06 4.16C92.06 4.14 92.05 4.14 92.05 4.13L92.05 4.07C92.05 3.91 92.18 3.78 92.32 3.78L94.01 3.78C94.14 3.78 94.23 3.86 94.28 3.99L94.28 4.02L96.10 11.30L97.93 4.02L97.93 3.99C97.97 3.86 98.07 3.78 98.20 3.78L99.88 3.78C100.03 3.78 100.16 3.91 100.16 4.07Z"
    ></path>
  </g>
  <g
    data-v-423bf9ae=""
    id="80eda4c4-7b42-447c-a096-094fada03895"
    transform="matrix(1.1068333095974392,0,0,1.1068333095974392,-16.767817147908417,-0.15391838506867828)"
    stroke="none"
    fill="url(#grad)"
  >
    <path
      d="M84.228 4.966c-.296-1.263-1.122-2.275-2.33-2.851L79.258.858c-.155-.291-.52-.621-1.378-.621-.351 0-.756.056-1.204.165L50.715 6.727c-2.497.609-5.491 2.96-6.675 5.242L24.903 48.86c-.569 1.096-.642 2.097-.205 2.815.476.783 1.518 1.136 2.856.954l3.169-.426c1.15-.153 2.051.13 2.455.771.374.592.326 1.449-.134 2.413l-17.013 35.97c-.522 1.094-.583 1.143-.553 2.143h.022v-.543c0 .006-.029.012-.028.018l.589 3.419c.275 2.393 1.49 3.12 2.193 3.342.205.062.465.116.775.116.763 0 1.804-.321 2.933-1.606L65.73 48.434c1.145-1.302 1.639-2.887 1.355-4.351-.251-1.304-1.077-2.37-2.325-3.002l-2.696-1.366c-.189-.384-.669-.824-1.884-.824-.083 0-.181.013-.271.017L83.063 9.443c1.083-1.378 1.507-3.009 1.165-4.477zM64.401 44.602c.12.626-.144 1.366-.726 2.028l-43.77 49.808c-.405.46-.707.625-.836.667-.083-.108-.238-.415-.308-1.024 0 0-.606-3.586-.552-4.913L61.14 42.312l2.384 1.208c.484.245.787.619.877 1.082zM80.912 7.754L56.106 39.323l-2.517.288c-1.12.128-1.918-.099-2.168-.612-.236-.488.005-1.248.661-2.084L78.368 3.464l2.354 1.121c.453.216.737.555.844 1.005.152.654-.086 1.442-.654 2.164z"
    ></path>
  </g>
</svg>
